<svg xmlns="http://www.w3.org/2000/svg" xmlns:xlink="http://www.w3.org/1999/xlink" viewBox="0 0 624.39 126.91"><defs><style>.cls-1{isolation:isolate;}.cls-2{fill:#000c11;}.cls-3{fill:#0055a0;}.cls-11,.cls-4,.cls-8{mix-blend-mode:overlay;}.cls-5{fill:url(#linear-gradient);}.cls-6{fill:#99fffa;}.cls-7{fill:#1498ff;}.cls-8{opacity:0.3;}.cls-9{fill:url(#linear-gradient-8);}.cls-10{fill:url(#linear-gradient-15);}.cls-11{opacity:0.5;}.cls-12{fill:url(#linear-gradient-22);}</style><linearGradient id="linear-gradient" x1="318.74" y1="112.05" x2="318.74" y2="14.92" gradientTransform="translate(-7.7 -0.33)" gradientUnits="userSpaceOnUse"><stop offset="0" stop-color="#ddd"/><stop offset="0.08" stop-color="#a2a2a2" stop-opacity="0.81"/><stop offset="0.28" stop-color="#0f0f0f" stop-opacity="0.35"/><stop offset="0.3" stop-opacity="0.3"/><stop offset="1"/></linearGradient><linearGradient id="linear-gradient-8" x1="322.22" y1="130.61" x2="306.01" y2="-23.57" gradientUnits="userSpaceOnUse"><stop offset="0.44" stop-color="#fff" stop-opacity="0"/><stop offset="0.45" stop-color="#fff"/><stop offset="1" stop-color="#fff"/></linearGradient><linearGradient id="linear-gradient-15" x1="327.92" y1="141.95" x2="311.72" y2="-12.24" gradientTransform="translate(-4 -5)" gradientUnits="userSpaceOnUse"><stop offset="0.43" stop-color="#fff" stop-opacity="0"/><stop offset="0.82" stop-color="#fff"/></linearGradient><linearGradient id="linear-gradient-22" x1="315.02" y1="110.47" x2="310.99" y2="-4.84" gradientUnits="userSpaceOnUse"><stop offset="0.12"/><stop offset="0.41" stop-opacity="0"/></linearGradient></defs><title>logo</title><g class="cls-1"><g id="Layer_1" data-name="Layer 1"><polygon class="cls-2" points="0 5.89 48.89 1.23 56.49 34.42 59.01 43.34 77.47 23.41 90.31 44.26 106.21 2.52 156.94 14.35 108.44 124.19 72.34 124.19 68.29 111.42 62.33 124.15 27.82 125.25 0 5.89"/><polygon class="cls-2" points="190.28 113.53 192.18 125.16 143.49 125.16 134.59 7.86 200.46 2.38 230.38 25.95 233.15 67.03 223.24 78.96 250.93 105.32 204.77 126.91 190.28 113.53"/><polygon class="cls-2" points="222.97 3.23 264.5 0.45 287.52 117.8 226.98 124.99 222.97 3.23"/><polygon class="cls-2" points="269.3 73.61 277.66 27.35 310.52 1.57 351.48 4.63 372.88 36.06 364.1 41.38 371.31 41.49 371.31 114.66 292.96 125.55 269.3 73.61"/><polygon class="cls-2" points="355.35 73.61 363.7 27.35 396.56 1.57 437.52 4.63 458.92 36.06 450.15 41.38 457.35 41.49 457.35 114.66 379 125.55 355.35 73.61"/><polygon class="cls-2" points="441.41 0 496.2 6.81 492.6 66.77 530.38 61.86 536.16 113.36 445.79 124.94 441.41 0"/><polygon class="cls-2" points="531.64 124.6 523.61 47.85 532.34 1.79 613.85 1.79 605.21 48.92 602.95 49.3 601.3 77.45 605.76 77.5 624.39 124.6 531.64 124.6"/><polygon class="cls-3" points="8.79 16.41 43.54 13.34 49.74 38.43 55.72 58.03 76.38 37.37 91.77 60.52 110.45 15.11 146.81 22.96 104.03 112.69 77.34 112.69 69.52 89.89 57.96 112.78 33.23 113.51 8.79 16.41"/><path class="cls-3" d="M185.71,103.17l3.83,21.76h-33.9l-7.8-95.17,56.27-4.34,25.21,18.4,2.32,31.83L219,89.73l24.72,21.78-32,13.88Zm3.21-31.79,5.9-8.5-10.18-5.44-0.56,13.31Z" transform="translate(-5.7 -11.33)"/><polygon class="cls-3" points="230.21 14.26 258.9 12.48 279.07 107.66 233.71 112.65 230.21 14.26"/><path class="cls-3" d="M282.33,83.21L289.7,45.4l28.57-20.76,35.19,2.44,14.79,20.11L343.67,61,370,61.35V116l-67.28,8.66ZM322.76,92l20.75-2.48,0-.24L325.3,91,328,60.79,342.81,61l-8.7-4.79-11.45,3.48-7.16,17Z" transform="translate(-5.7 -11.33)"/><path class="cls-3" d="M368.37,83.21l7.38-37.81,28.57-20.76,35.19,2.44L454.3,47.19,429.71,61l26.35,0.36V116l-67.28,8.66ZM408.81,92l20.75-2.48,0-.24L411.34,91,414,60.79,428.85,61l-8.69-4.79-11.45,3.48-7.16,17Z" transform="translate(-5.7 -11.33)"/><polygon class="cls-3" points="448.71 12.59 488.78 17.2 485.07 74.49 524.27 69.76 528.36 103.54 452.5 112.54 448.71 12.59"/><polygon class="cls-3" points="537.89 113.07 530.69 49.32 538.05 13.36 605.33 13.36 599.29 43.82 568.41 48.56 568.24 51.56 595.73 53.63 594.2 77.83 570.46 79.95 571.47 83.16 601.12 83.42 613.79 113.07 537.89 113.07"/><g class="cls-4"><polygon class="cls-5" points="12.56 19.09 41.24 16.56 46.84 39.2 54.31 63.68 75.91 42.08 92.4 66.88 112.27 18.57 142.47 25.1 102.13 109.69 79.48 109.69 70.05 82.19 56.09 109.83 35.56 110.44 12.56 19.09"/><path class="cls-5" d="M158.41,121.93l-7.32-89.41,52.17-4,23.19,16.92,2.13,29.17L214.76,90l23.44,20.65-26,11.25L181.3,95.46,186,121.93H158.41ZM181,73.36l9.38,1.23,8.86-12.78-17.36-9.28Z" transform="translate(-5.7 -11.33)"/><polygon class="cls-5" points="233.31 17.07 256.5 15.63 275.45 105.04 236.59 109.32 233.31 17.07"/><polygon class="cls-5" points="279.76 71.46 286.72 35.8 313.45 16.38 346.17 18.64 358.13 34.91 337.54 46.46 328.75 41.63 314.74 45.88 306.52 65.43 315.27 83.9 340.5 80.89 341.26 74.62 322.91 76.3 325.04 52.49 361.31 52.98 361.31 102.07 298.78 110.12 279.76 71.46"/><polygon class="cls-5" points="365.81 71.46 372.76 35.8 399.5 16.38 432.21 18.64 444.17 34.91 423.58 46.46 414.8 41.63 400.78 45.88 392.56 65.43 401.31 83.9 426.55 80.89 427.31 74.62 408.95 76.3 411.08 52.49 447.35 52.98 447.35 102.07 384.82 110.12 365.81 71.46"/><polygon class="cls-5" points="451.85 15.97 485.6 19.85 481.85 77.9 521.65 73.1 525.02 100.91 455.37 109.18 451.85 15.97"/><polygon class="cls-5" points="540.58 110.07 533.73 49.46 540.5 16.36 601.67 16.36 596.76 41.18 565.56 45.97 565.07 54.34 592.54 56.4 591.37 75.07 566.48 77.29 569.26 86.14 599.13 86.4 609.25 110.07 540.58 110.07"/></g><polygon class="cls-6" points="14.07 12.87 38.71 10.7 43.92 31.76 52.37 59.45 74.59 37.22 91.81 63.12 112.48 12.88 138.58 18.52 99.87 99.69 79.91 99.69 69.4 69.06 53.84 99.87 36.1 100.39 14.07 12.87"/><path class="cls-6" d="M159.25,111.93l-7-85.57,49.43-3.81,21.85,15.94,2,27.4L210.93,82.15l22.59,19.9-21.94,9.5L177.37,82.32l5.22,29.61H159.25ZM177.88,67.1l12.41,1.63,10.83-15.62L179,41.27Z" transform="translate(-5.7 -11.33)"/><polygon class="cls-6" points="234.38 10.95 253.91 9.74 272.03 95.3 237.52 99.09 234.38 10.95"/><polygon class="cls-6" points="280.86 63.18 287.53 28.96 313.04 10.43 344.11 12.57 354.17 26.27 336.53 36.17 327.98 31.47 312.26 36.24 303.33 57.48 313.08 78.06 341.3 74.69 342.55 64.4 324.11 66.09 325.87 46.51 358.31 46.95 358.31 92.31 298.94 99.95 280.86 63.18"/><polygon class="cls-6" points="366.9 63.18 373.57 28.96 399.08 10.43 430.15 12.57 440.22 26.27 422.57 36.17 414.02 31.47 398.31 36.24 389.37 57.48 399.13 78.06 427.34 74.69 428.59 64.4 410.15 66.09 411.91 46.51 444.35 46.95 444.35 92.31 384.98 99.95 366.9 63.18"/><polygon class="cls-6" points="452.93 10.22 482.49 13.62 478.7 72.17 518.91 67.32 521.8 91.16 456.29 98.94 452.93 10.22"/><polygon class="cls-6" points="541.36 100.07 534.75 41.55 541.13 10.36 598.24 10.36 594.07 31.41 562.66 36.24 561.96 48.18 589.42 50.24 588.48 65.23 562.82 67.52 566.79 80.13 596.81 80.39 605.22 100.07 541.36 100.07"/><polygon class="cls-7" points="17.07 9.87 41.71 7.7 46.92 28.76 55.37 56.45 77.59 34.22 94.81 60.12 115.48 9.88 141.58 15.52 102.87 96.69 82.91 96.69 72.4 66.06 56.84 96.87 39.1 97.39 17.07 9.87"/><path class="cls-7" d="M162.25,108.93l-7-85.57,49.43-3.81,21.85,15.94,2,27.4L213.93,79.15l22.59,19.9-21.94,9.5L180.37,79.32l5.22,29.61H162.25ZM180.88,64.1l12.41,1.63,10.83-15.62L182,38.27Z" transform="translate(-5.7 -11.33)"/><polygon class="cls-7" points="237.38 7.95 256.91 6.74 275.03 92.3 240.52 96.09 237.38 7.95"/><polygon class="cls-7" points="283.86 60.18 290.53 25.96 316.04 7.42 347.11 9.57 357.17 23.27 339.53 33.17 330.98 28.47 315.26 33.24 306.33 54.48 316.08 75.06 344.3 71.69 345.55 61.4 327.11 63.09 328.87 43.51 361.31 43.95 361.31 89.31 301.94 96.95 283.86 60.18"/><polygon class="cls-7" points="369.9 60.18 376.57 25.96 402.08 7.42 433.15 9.57 443.22 23.27 425.57 33.17 417.02 28.47 401.31 33.24 392.37 54.48 402.13 75.06 430.34 71.69 431.59 61.4 413.15 63.09 414.91 43.51 447.35 43.95 447.35 89.31 387.98 96.95 369.9 60.18"/><polygon class="cls-7" points="455.93 7.22 485.49 10.62 481.7 69.17 521.91 64.32 524.8 88.16 459.29 95.94 455.93 7.22"/><polygon class="cls-7" points="544.36 97.07 537.75 38.55 544.13 7.36 601.24 7.36 597.07 28.41 565.66 33.24 564.96 45.18 592.42 47.24 591.48 62.23 565.82 64.52 569.79 77.13 599.81 77.39 608.22 97.07 544.36 97.07"/><g class="cls-8"><polygon class="cls-9" points="20.84 12.55 39.41 10.91 44.02 29.56 53.95 62.1 77.12 38.94 95.44 66.49 117.31 13.35 137.24 17.65 100.98 93.69 85.06 93.69 72.93 58.35 54.97 93.92 41.42 94.32 20.84 12.55"/><path class="cls-9" d="M165,105.93l-6.54-79.81,45.32-3.49,19.83,14.47,1.81,24.74L209.67,79.4,231,98.18l-15.88,6.88L176,71.61l6,34.32H165Zm12.75-39.2,16.94,2.22L208.5,49,179.18,33.38Z" transform="translate(-5.7 -11.33)"/><polygon class="cls-9" points="240.48 10.76 254.51 9.89 271.41 89.68 243.4 92.76 240.48 10.76"/><polygon class="cls-9" points="286.99 59.77 293.25 27.69 316.92 10.49 345.51 12.47 352.75 22.31 339.51 29.74 331.32 25.23 313.04 30.78 303.04 54.55 314.3 78.29 347 74.38 348.97 58.08 330.42 59.77 331.61 46.55 358.31 46.91 358.31 86.67 303.69 93.7 286.99 59.77"/><polygon class="cls-9" points="373.04 59.77 379.29 27.69 402.96 10.49 431.56 12.47 438.79 22.31 425.56 29.74 417.36 25.23 399.09 30.78 389.08 54.55 400.34 78.29 433.04 74.38 435.01 58.08 416.46 59.77 417.65 46.55 444.35 46.91 444.35 86.67 389.73 93.7 373.04 59.77"/><polygon class="cls-9" points="459.06 10.6 482.31 13.28 478.47 72.58 519.29 67.66 521.46 85.54 462.16 92.58 459.06 10.6"/><polygon class="cls-9" points="547.04 94.07 540.78 38.68 546.58 10.36 597.59 10.36 594.53 25.77 562.81 30.64 561.79 47.95 589.24 50.02 588.65 59.47 561.84 61.87 567.58 80.11 597.82 80.37 603.67 94.07 547.04 94.07"/></g><g class="cls-4"><path class="cls-10" d="M30.08,24.25l6.45-.57,3.42,13.81L52.83,79.75,67.92,64.66l-15,29.71-5.15.15ZM91,94L77.63,55l0.26-.26L98.4,85.54,122.65,26.6l7.61,1.64L98.9,94H91Z" transform="translate(-5.7 -11.33)"/><path class="cls-10" d="M166.54,94.93l-5.59-68.29,8.33-.64L168,55.36l-4.88-4.17,7.7,43.74h-4.31Zm17.61-25.79,9.41,1.23,19.71-28.44L181.65,25,198,23.77l15.8,11.53,1.42,19.43L197.17,74.9l18.76,16.53-3.77,1.63Z" transform="translate(-5.7 -11.33)"/><polygon class="cls-10" points="242.69 11.39 245.71 11.2 260.17 79.44 245.17 81.09 242.69 11.39"/><path class="cls-10" d="M295,65.27l5.42-27.78,20-14.53L344,24.6l1.57,2.14-4.41,2.48-7.49-4.13-23.39,7.11L298.17,61,312.43,91.1l41.59-5v1.6l-45.13,5.81ZM338.79,59L343.68,59l-4.94.45Z" transform="translate(-5.7 -11.33)"/><path class="cls-10" d="M381,65.27l5.42-27.78,20-14.53,23.64,1.64,1.57,2.13-4.41,2.48-7.49-4.12-23.39,7.11L384.22,61,398.47,91.1l41.58-5v1.6l-45.13,5.81ZM424.83,59L429.72,59l-4.94.45Z" transform="translate(-5.7 -11.33)"/><polygon class="cls-10" points="461.32 12.36 471.95 13.59 468.01 74.4 510.06 69.34 510.78 75.29 463.91 80.85 461.32 12.36"/><polygon class="cls-10" points="548.4 83.07 542.85 33.95 547.48 11.36 586.28 11.36 585.47 15.47 553.1 20.44 551.46 48.49 569.21 49.83 549.88 51.56 559.17 81.07 589.84 81.33 590.59 83.07 548.4 83.07"/></g><g class="cls-11"><polygon class="cls-12" points="23.35 14.34 37.88 13.06 42.1 30.09 53.01 65.87 76.81 42.08 95.86 70.73 118.52 15.65 134.34 19.07 99.72 91.69 86.48 91.69 73.28 53.22 53.72 91.96 42.97 92.28 23.35 14.34"/><path class="cls-12" d="M166.86,103.93l-6.22-76,42.58-3.28L221.7,38.16l1.68,23L206.84,79.57l20.46,18-11.84,5.13L173,66.47l6.6,37.46H166.86Zm8.84-35.46,20,2.62,15.76-22.74L177.32,30.11Z" transform="translate(-5.7 -11.33)"/><polygon class="cls-12" points="242.55 12.63 252.91 11.99 269 87.93 245.32 90.53 242.55 12.63"/><polygon class="cls-12" points="289.09 59.49 295.06 28.84 317.51 12.54 344.45 14.4 349.8 21.68 339.5 27.45 331.54 23.07 311.56 29.14 300.85 54.6 313.11 80.45 348.79 76.18 351.25 55.86 332.63 57.56 333.43 48.58 356.31 48.88 356.31 84.91 304.85 91.54 289.09 59.49"/><polygon class="cls-12" points="375.13 59.49 381.1 28.84 403.55 12.54 430.49 14.4 435.84 21.68 425.55 27.45 417.59 23.07 397.61 29.14 386.89 54.6 399.15 80.45 434.83 76.18 437.3 55.86 418.67 57.56 419.47 48.58 442.35 48.88 442.35 84.91 390.89 91.54 375.13 59.49"/><polygon class="cls-12" points="461.15 12.85 480.19 15.05 476.32 74.86 517.55 69.89 519.23 83.79 464.08 90.33 461.15 12.85"/><polygon class="cls-12" points="548.83 92.07 542.81 38.77 548.21 12.36 595.15 12.36 592.85 24 560.91 28.91 559.68 49.8 587.12 51.86 586.76 57.63 559.19 60.1 566.11 82.09 596.49 82.36 600.64 92.07 548.83 92.07"/></g></g></g></svg>